<svg xmlns="http://www.w3.org/2000/svg" width="298.2" height="298.2" viewBox="0 0 298.2 298.2"><circle fill="#FFF" stroke="#4992D6" stroke-width="2" stroke-miterlimit="10" cx="149.6" cy="149.6" r="148.1"/><g fill-rule="evenodd" clip-rule="evenodd" fill="#206EB5"><path d="M158.64 234.378c-5.056.224-9.715.656-14.37.592-14.668-.196-29.355-.195-43.995-1-13.02-.72-25.92-2.774-38.19-7.58-4.774-1.873-9.237-4.285-12.934-7.963-3.14-3.128-5.2-6.792-5.2-11.266-.01-4.08-.2-8.31.73-12.22 1.52-6.44 6.17-11.03 10.99-15.29 7.98-7.06 17.15-12.29 26.68-16.88 5.8-2.79 11.78-5.21 17.74-7.65 8.99-3.68 11.7-14.582 5.38-21.94-10.71-12.456-16.583-27.035-18.94-43.16-1.61-11.01-1.25-21.87 2.128-32.58C93.828 41.046 107.87 29.56 125 27.757c10.52-1.104 20.5.39 29.72 5.74 9.45 5.485 15.52 13.727 18.93 23.975 3.666 11.02 3.787 22.28 2.018 33.63-2.116 13.58-7.007 26.065-15.046 37.26-.83 1.15-1.66 2.316-2.64 3.334-4.61 4.804-4.82 10.55-3.8 16.64.14.838-.065 1.966-.552 2.64-5.832 8.13-9.8 17.06-11.496 26.92-2.98 17.33.38 33.38 10.12 48.028 1.874 2.815 4.067 5.417 6.39 8.484z"/><path d="M259.364 189.462c.023 29.21-23.695 52.92-52.875 52.86-29.27-.06-52.94-23.79-52.81-52.934.13-29.244 23.54-52.65 52.77-52.758 29.15-.103 52.88 23.592 52.91 52.832zm-23.612 7.56c0-4.58-.06-8.822.03-13.063.036-1.58-.435-2.09-2.042-2.07-5.812.08-11.63.03-17.443.02-.756 0-1.512-.07-2.48-.12v-21.41h-14.775v21.59h-21.725v15.04h21.842v21.62h14.73V197h21.85z"/></g></svg>